# xmcd
#
# Track frame offsets:
#	150
#	13559
#	27442
#	31661
#	35627
#	40051
#	44120
#	58332
#	72804
#	93901
#	108380
#	123715
#	144427
#	162045
#	178200
#	193826
#
# Disc length: 2774 seconds
#
# Revision: 0
# Processed by: cddbd v1.5.2PL0 Copyright (c) Steve Scherf et al.
# Submitted via: EasyCDDAExtractor 16.0.6.1
#
DISCID=e20ad410
DTITLE=Διάφοροι - Τα λαίκά του χθες και του σήμερα Cd1
DYEAR=2012
DGENRE=Λαϊκά
TTITLE0=Απαλάχτηκα από σένα (Μιχ.Μενιδιάτης)
TTITLE1=Το πουλί (Χρηστάκης)
TTITLE2=Ηλιοβασιλέματα (Μαίρη Λίντα)
TTITLE3=Μη μου ζαλίζεις το μυαλό (Μαίρη Λίντα)
TTITLE4=Σήκω κοπέλα μου (Μαίρη Λίντα)
TTITLE5=Εσί είσαι η αιτία που υποφέρω (Μαίρη Λίντα)
TTITLE6=Δως μου φίλε τη φωτιά σου (Μαν.Αγγελόπουλος)
TTITLE7=Στο Πειραιά συννμέφιασε (Πόλυ Πάνου)
TTITLE8=Σαββατόβραδο (Μανώλης Μητσιάς)
TTITLE9=Αλήτη μ΄είπες μια βραδιά (Σωτηρία Μπέλλου)
TTITLE10=Μην περιμένεις πια (Στράτος Κύπριος)
TTITLE11=Μεθυσμένη είμαι (χαρούλα Λαμπράκη)
TTITLE12=Καίγομαι (Κωνσταντίνα and Μάκης Χριστοδουλόπουλος)
TTITLE13=Φόρα τα μαύρα (Καίτη Γκρέϋ)
TTITLE14=Δεν κοιμάμαι τώρα πια τα βράδια (Μάκης Χριστοδουλόπουλος)
TTITLE15=Απονιά (Περικλής Περράκης)
EXTD=
EXTT0=
EXTT1=
EXTT2=
EXTT3=
EXTT4=
EXTT5=
EXTT6=
EXTT7=
EXTT8=
EXTT9=
EXTT10=
EXTT11=
EXTT12=
EXTT13=
EXTT14=
EXTT15=
PLAYORDER=
